<svg xmlns="http://www.w3.org/2000/svg" viewBox="0 0 400 300" fill="none">
  <rect width="400" height="300" fill="#fff7ed"/>
  <!-- Grill -->
  <rect x="100" y="160" width="200" height="80" rx="15" fill="#3f3f46"/>
  <path d="M100 170 L300 170" stroke="#27272a" stroke-width="6"/>
  <!-- Grill Bars -->
  <path d="M120 160 L120 130 M150 160 L150 130 M180 160 L180 130 M210 160 L210 130 M240 160 L240 130 M280 160 L280 130" stroke="#71717a" stroke-width="6" stroke-linecap="round"/>
  <!-- Fire -->
  <path d="M130 150 Q145 100 160 150 T190 150 Q205 100 220 150 T250 150" stroke="#ea580c" stroke-width="6" stroke-linecap="round" fill="none"/>
  <path d="M150 160 Q160 120 170 160 T190 160 Q200 120 210 160" stroke="#fbbf24" stroke-width="4" stroke-linecap="round" fill="none"/>
  <!-- Garlic Bread / Meat -->
  <ellipse cx="160" cy="115" rx="35" ry="15" fill="#fcd34d" transform="rotate(-10 160 115)"/>
  <path d="M140 105 L150 125 M155 105 L165 125 M170 105 L180 125" stroke="#d97706" stroke-width="2"/>
  <ellipse cx="230" cy="115" rx="35" ry="15" fill="#fcd34d" transform="rotate(10 230 115)"/>
  <path d="M220 125 L230 105 M235 125 L245 105 M250 125 L260 105" stroke="#d97706" stroke-width="2"/>
</svg>
